<svg width="100" height="100" xmlns="http://www.w3.org/2000/svg">
  <defs>
    <pattern id="foodPattern" x="0" y="0" width="100" height="100" patternUnits="userSpaceOnUse">
      <!-- Plate -->
      <circle cx="15" cy="15" r="5" fill="white" opacity="0.3" />
      
      <!-- Fork -->
      <path d="M40 10 L45 10 L45 25 L40 25 L40 10 Z" fill="white" opacity="0.3" />
      <path d="M35 10 L40 10 L40 25 L35 25 L35 10 Z" fill="white" opacity="0.3" />
      <path d="M45 20 L45 35 L40 35 L40 20 Z" fill="white" opacity="0.3" />
      
      <!-- Knife -->
      <path d="M60 10 L70 10 L65 25 L60 25 L60 10 Z" fill="white" opacity="0.3" />
      <path d="M65 20 L65 35 L60 35 L60 20 Z" fill="white" opacity="0.3" />
      
      <!-- Spoon -->
      <circle cx="85" cy="15" r="5" fill="white" opacity="0.3" />
      <path d="M85 20 L85 35 L80 35 L80 20 Z" fill="white" opacity="0.3" />
      
      <!-- Chef Hat -->
      <path d="M15 70 C15 65, 10 60, 15 55 C20 50, 25 55, 25 55 C25 50, 35 50, 35 55 C40 50, 45 55, 40 60 C40 65, 30 70, 15 70 Z" fill="white" opacity="0.3" />
      
      <!-- Bowl -->
      <path d="M60 70 C50 70, 50 60, 60 60 C70 60, 70 70, 60 70 Z" fill="white" opacity="0.3" />
      
      <!-- Carrot -->
      <path d="M85 65 L90 70 L80 70 Z" fill="white" opacity="0.3" />
      <path d="M85 70 L85 85 L85 70 Z" fill="white" opacity="0.3" />
    </pattern>
  </defs>
  
  <rect width="100" height="100" fill="url(#foodPattern)" />
</svg>